Coordinates
version=1
nRows=19
nColumns=24
inDegrees=yes

Units are S.I. units (second, meters, Newtons, ...)
Angles are in degrees.

endheader
time	pelvis_tilt	pelvis_list	pelvis_rotation	pelvis_tx	pelvis_ty	pelvis_tz	hip_flexion_r	hip_adduction_r	hip_rotation_r	knee_angle_r	ankle_angle_r	subtalar_angle_r	mtp_angle_r	hip_flexion_l	hip_adduction_l	hip_rotation_l	knee_angle_l	ankle_angle_l	subtalar_angle_l	mtp_angle_l	lumbar_extension	lumbar_bending	lumbar_rotation
      1.04983333	      0.04165066	      0.88901712	      0.29786854	     -0.14555939	      0.98321121	      0.32936531	    -21.40081030	      1.94248415	     -4.71786821	     -0.76417961	     16.43710883	     -1.42120259	     -5.78605500	     21.23791224	      2.74481849	      3.94653387	      4.10482094	     -1.61647105	     -9.00874774	     -4.43530416	    -12.70015413	      4.54177139	      6.69236478
      1.05400000	      0.09039596	      1.03154461	      0.24741172	     -0.13961808	      0.98248703	      0.32916275	    -21.55193346	      1.72737987	     -4.85968536	     -1.31856069	     16.63185913	     -1.12979953	     -5.67047107	     21.17727678	      2.95289117	      4.09313766	      4.04446241	     -1.59699017	     -9.15449009	     -4.37420129	    -12.74568790	      4.34885804	      6.70660959
      1.05816667	      0.13520969	      1.17355658	      0.20619759	     -0.13365176	      0.98179602	      0.32892586	    -21.66876613	      1.50932782	     -5.04290802	     -1.93772983	     16.81632123	     -0.79002780	     -5.52487544	     21.13624755	      3.16796434	      4.25708650	      3.87834655	     -1.62774868	     -9.37540670	     -4.30411143	    -12.76381227	      4.14895081	      6.71053043
      1.06233333	      0.18752448	      1.34166598	      0.16910241	     -0.12764962	      0.98116362	      0.32868188	    -21.78656678	      1.26354612	     -5.21568735	     -2.57432859	     16.97741149	     -0.47959860	     -5.35773292	     21.09856775	      3.41350315	      4.41920613	      3.61495226	     -1.70556660	     -9.63782299	     -4.22836134	    -12.79569772	      3.92225486	      6.69576100
      1.06650000	      0.22711683	      1.51892576	      0.14122737	     -0.12162048	      0.98055360	      0.32840926	    -21.87335365	      1.00733999	     -5.38398856	     -3.24771338	     17.11525593	     -0.18975373	     -5.16580498	     21.08786234	      3.67533413	      4.59684231	      3.25746042	     -1.83395793	     -9.95695986	     -4.14676747	    -12.80767013	      3.69036088	      6.66930790
      1.07066667	      0.27302383	      1.70858289	      0.12608442	     -0.11556702	      0.97999293	      0.32810325	    -21.95479430	      0.73924609	     -5.55501602	     -3.94719983	     17.21967125	      0.09702749	     -4.92549529	     21.08177486	      3.95768000	      4.78297386	      2.81654637	     -2.00865348	    -10.32215324	     -4.04822597	    -12.83276553	      3.45045271	      6.62820414
      1.07483333	      0.30078323	      1.90296462	      0.10840334	     -0.10947563	      0.97945296	      0.32779243	    -22.00239740	      0.46346758	     -5.70613256	     -4.67590970	     17.29065920	      0.31206081	     -4.67830593	     21.10806896	      4.24631848	      4.95161179	      2.29314457	     -2.23974758	    -10.71910102	     -3.95340893	    -12.81669124	      3.20090544	      6.57568489
      1.07900000	      0.32098570	      2.10665149	      0.10597031	     -0.10335602	      0.97894113	      0.32745643	    -22.02872560	      0.18215917	     -5.85176413	     -5.43513739	     17.32282928	      0.51273395	     -4.40022358	     21.15370766	      4.55223070	      5.12291785	      1.69856819	     -2.51530280	    -11.15400629	     -3.85317736	    -12.79659782	      2.93865999	      6.51023820
      1.08316667	      0.34085195	      2.31491526	      0.11123168	     -0.09722257	      0.97847203	      0.32709654	    -22.04186871	     -0.10288222	     -5.98810161	     -6.21728887	     17.30823333	      0.67985350	     -4.07910299	     21.21122258	      4.86819687	      5.29046203	      1.04129570	     -2.84343617	    -11.61937172	     -3.74610688	    -12.77511542	      2.68159219	      6.43121589
      1.08733333	      0.37605409	      2.51103852	      0.12284762	     -0.09107441	      0.97806879	      0.32674563	    -22.07795116	     -0.36399505	     -6.03049881	     -6.96806250	     17.11018834	      0.57093458	      0.80343483	     21.25330506	      5.17371234	      5.48385343	      0.34763280	     -3.24389137	    -12.18247841	     -2.23361289	    -12.77881676	      2.42382569	      6.36252976
      1.09150000	      0.37679479	      2.74441913	      0.14571739	     -0.08484932	      0.97766692	      0.32637481	    -22.06510615	     -0.66273324	     -6.11834660	     -7.75919034	     16.95146000	      0.59106961	      0.84065582	     21.36912609	      5.52037207	      5.52715119	     -0.46464749	     -3.53607729	    -12.46208915	     -2.24728581	    -12.71921691	      2.11294908	      6.26234146
      1.09566667	      0.37132493	      2.93194436	      0.18467446	     -0.07868274	      0.97727947	      0.32591674	    -21.98350778	     -0.92389242	     -6.27309077	     -8.67451005	     16.83926146	      0.77318024	      1.01565318	     21.48596241	      5.83498213	      5.71934624	     -1.27867287	     -3.97891524	    -13.07461962	     -2.26835732	    -12.66089297	      1.89765337	      6.14480298
      1.09983333	      0.36943225	      3.15381901	      0.20886413	     -0.07244003	      0.97697364	      0.32554211	    -21.93041819	     -1.20544752	     -6.28431195	     -9.52860857	     16.58343771	      0.63984571	      1.10285917	     21.60995602	      6.16917047	      5.74665985	     -2.14259636	     -4.37193243	    -13.41606913	     -2.28002663	    -12.60451148	      1.60069529	      6.04227164
      1.10400000	      0.32098314	      3.31698233	      0.25842785	     -0.06625872	      0.97662890	      0.32506425	    -21.76775240	     -1.43208159	     -6.34836523	    -10.49733090	     16.32122383	      0.63343593	      1.34292001	     21.78458718	      6.46177415	      5.92489250	     -3.01696359	     -4.88006770	    -14.03453403	     -2.29792000	    -12.49266611	      1.42437802	      5.91350015
      1.10816667	      0.32715733	      3.54061640	      0.30129171	     -0.05998380	      0.97641401	      0.32465868	    -21.69034420	     -1.70603790	     -6.35396225	    -11.40896389	     15.95666638	      0.44931254	      1.50031211	     21.90603646	      6.80383300	      5.96487614	     -3.92985413	     -5.26477434	    -14.41155286	     -2.31260782	    -12.44290008	      1.11082560	      5.79574660
      1.11233333	      0.28540294	      3.67911969	      0.37387820	     -0.05379562	      0.97616877	      0.32413768	    -21.50891989	     -1.89256901	     -6.37199384	    -12.40782780	     15.56140133	      0.33729977	      2.06464299	     22.08375603	      7.08342242	      6.17448764	     -4.85871257	     -5.77620403	    -15.11552914	     -2.35434278	    -12.34432101	      0.96727857	      5.65015514
      1.11650000	      0.24187841	      3.85533614	      0.40407949	     -0.04755142	      0.97599463	      0.32371138	    -21.28388880	     -2.12830861	     -6.34513128	    -13.48124110	     15.06249686	      0.06345430	      2.55859188	     22.24347325	      7.37109328	      6.23213894	     -5.75409033	     -6.20098362	    -15.49581858	     -2.39940850	    -12.22874373	      0.75188498	      5.51599162
      1.12066667	      0.27728717	      4.05727102	      0.46375813	     -0.04127854	      0.97595254	      0.32323416	    -21.15969619	     -2.37763212	     -6.37386221	    -14.50178627	     14.41546730	     -0.25863336	     10.25132696	     22.32941406	      7.70131258	      6.30845975	     -6.69945799	     -6.52600515	    -15.92130022	     -3.08559902	    -12.22981951	      0.47474668	      5.42246829
      1.12483333	      0.25667364	      4.21222796	      0.51595254	     -0.03502287	      0.97589879	      0.32277277	    -20.92927006	     -2.57714105	     -6.33318877	    -15.60454721	     13.75914231	     -0.57617743	     10.30312682	     22.48045746	      7.97429299	      6.34014676	     -7.65871413	     -6.81254867	    -16.22546531	     -3.09597635	    -12.14330526	      0.28285846	      5.26982909
